<svg version="1.1" id="Layer_1" xmlns="http://www.w3.org/2000/svg" xmlns:xlink="http://www.w3.org/1999/xlink" x="0px" y="0px"
		viewBox="0 0 28.3 28.3" style="enable-background:new 0 0 28.3 28.3;" xml:space="preserve">
	<rect x="9.5" y="0.8" transform="matrix(0.997 -7.795012e-02 7.795012e-02 0.997 -0.4131 0.9402)" class="st0" width="4.6" height="9.8"/>
	<polygon class="st0" points="18.6,11.6 14.1,10.4 17.4,0.5 21.8,1.9 "/>
	<rect x="20" y="5.1" transform="matrix(0.786 0.6183 -0.6183 0.786 10.4935 -11.8121)" class="st0" width="4.6" height="8.4"/>
	<rect x="22.5" y="12.1" transform="matrix(0.4114 0.9115 -0.9115 0.4114 28.0769 -13.9156)" class="st0" width="4.6" height="5.4"/>
	<polygon class="st0" points="7.2,20.8 -0.5,15.7 2.1,11.9 8.3,16 "/>
	<polygon class="st0" points="22.7,18.6 18.7,25.7 15.1,24.9 9.2,23.6 7.7,21.8 7.9,21 8.9,16.2 9.9,11.8 15,11.4 18.1,12.4 
		20.7,14.6 "/>
	<rect x="10.2" y="23.5" class="st0" width="8.2" height="4.8"/>
</svg>